<mxfile host="app.diagrams.net" modified="2024-04-10T17:44:42.172Z" agent="Mozilla/5.0 (Windows NT 10.0; Win64; x64) AppleWebKit/537.36 (KHTML, like Gecko) Chrome/123.0.0.0 Safari/537.36" etag="DQC75WoXh1987uZij1K7" version="24.2.3" type="github">
  <diagram id="R2lEEEUBdFMjLlhIrx00" name="Page-1">
    <mxGraphModel dx="1687" dy="922" grid="1" gridSize="10" guides="1" tooltips="1" connect="1" arrows="1" fold="1" page="1" pageScale="1" pageWidth="850" pageHeight="1100" math="0" shadow="0" extFonts="Permanent Marker^https://fonts.googleapis.com/css?family=Permanent+Marker">
      <root>
        <mxCell id="0" />
        <mxCell id="1" parent="0" />
        <mxCell id="n1yPlHlh6JEWoWV6ZDrB-1" value="Task&amp;nbsp;" style="swimlane;fontStyle=1;align=center;verticalAlign=top;childLayout=stackLayout;horizontal=1;startSize=26;horizontalStack=0;resizeParent=1;resizeParentMax=0;resizeLast=0;collapsible=1;marginBottom=0;whiteSpace=wrap;html=1;" vertex="1" parent="1">
          <mxGeometry x="60" y="710" width="220" height="292" as="geometry" />
        </mxCell>
        <mxCell id="n1yPlHlh6JEWoWV6ZDrB-2" value="- taskTitle: String&lt;div&gt;- taskDescription : String&lt;/div&gt;&lt;div&gt;- taskStatus : int&lt;/div&gt;&lt;div&gt;- deadline: String&lt;/div&gt;&lt;div&gt;- priority: int&lt;/div&gt;" style="text;strokeColor=none;fillColor=none;align=left;verticalAlign=top;spacingLeft=4;spacingRight=4;overflow=hidden;rotatable=0;points=[[0,0.5],[1,0.5]];portConstraint=eastwest;whiteSpace=wrap;html=1;" vertex="1" parent="n1yPlHlh6JEWoWV6ZDrB-1">
          <mxGeometry y="26" width="220" height="84" as="geometry" />
        </mxCell>
        <mxCell id="n1yPlHlh6JEWoWV6ZDrB-3" value="" style="line;strokeWidth=1;fillColor=none;align=left;verticalAlign=middle;spacingTop=-1;spacingLeft=3;spacingRight=3;rotatable=0;labelPosition=right;points=[];portConstraint=eastwest;strokeColor=inherit;" vertex="1" parent="n1yPlHlh6JEWoWV6ZDrB-1">
          <mxGeometry y="110" width="220" height="10" as="geometry" />
        </mxCell>
        <mxCell id="n1yPlHlh6JEWoWV6ZDrB-4" value="+ getTaskTitle()&lt;div&gt;+ getTaskDescription()&lt;/div&gt;&lt;div&gt;+ getTaskStatus()&lt;/div&gt;&lt;div&gt;+ getDeadline()&lt;/div&gt;&lt;div&gt;+ getPriority()&lt;/div&gt;&lt;div&gt;&lt;br&gt;&lt;/div&gt;&lt;div&gt;+ setTaskTitle()&lt;/div&gt;&lt;div&gt;+ setTaskDescription()&lt;/div&gt;&lt;div&gt;+ setTaskStatus()&lt;/div&gt;&lt;div&gt;+ setDeadline()&lt;/div&gt;&lt;div&gt;+ setPriority()&lt;/div&gt;" style="text;strokeColor=none;fillColor=none;align=left;verticalAlign=top;spacingLeft=4;spacingRight=4;overflow=hidden;rotatable=0;points=[[0,0.5],[1,0.5]];portConstraint=eastwest;whiteSpace=wrap;html=1;" vertex="1" parent="n1yPlHlh6JEWoWV6ZDrB-1">
          <mxGeometry y="120" width="220" height="172" as="geometry" />
        </mxCell>
        <mxCell id="n1yPlHlh6JEWoWV6ZDrB-6" value="Event" style="swimlane;fontStyle=1;align=center;verticalAlign=top;childLayout=stackLayout;horizontal=1;startSize=26;horizontalStack=0;resizeParent=1;resizeParentMax=0;resizeLast=0;collapsible=1;marginBottom=0;whiteSpace=wrap;html=1;" vertex="1" parent="1">
          <mxGeometry x="650" y="765" width="220" height="182" as="geometry" />
        </mxCell>
        <mxCell id="n1yPlHlh6JEWoWV6ZDrB-7" value="- eventTitle: String&lt;div&gt;- eventDescription : String&lt;/div&gt;&lt;div&gt;- startDate: String&lt;/div&gt;&lt;div&gt;- endDate: String&lt;/div&gt;" style="text;strokeColor=none;fillColor=none;align=left;verticalAlign=top;spacingLeft=4;spacingRight=4;overflow=hidden;rotatable=0;points=[[0,0.5],[1,0.5]];portConstraint=eastwest;whiteSpace=wrap;html=1;" vertex="1" parent="n1yPlHlh6JEWoWV6ZDrB-6">
          <mxGeometry y="26" width="220" height="74" as="geometry" />
        </mxCell>
        <mxCell id="n1yPlHlh6JEWoWV6ZDrB-8" value="" style="line;strokeWidth=1;fillColor=none;align=left;verticalAlign=middle;spacingTop=-1;spacingLeft=3;spacingRight=3;rotatable=0;labelPosition=right;points=[];portConstraint=eastwest;strokeColor=inherit;" vertex="1" parent="n1yPlHlh6JEWoWV6ZDrB-6">
          <mxGeometry y="100" width="220" height="10" as="geometry" />
        </mxCell>
        <mxCell id="n1yPlHlh6JEWoWV6ZDrB-9" value="+ getEventTitle()&lt;div&gt;+ getEvent&lt;span style=&quot;background-color: initial;&quot;&gt;Description()&lt;/span&gt;&lt;/div&gt;&lt;div&gt;+ getStartDate()&lt;/div&gt;&lt;div&gt;+ getEndDate()&lt;/div&gt;&lt;div&gt;&lt;br&gt;&lt;/div&gt;" style="text;strokeColor=none;fillColor=none;align=left;verticalAlign=top;spacingLeft=4;spacingRight=4;overflow=hidden;rotatable=0;points=[[0,0.5],[1,0.5]];portConstraint=eastwest;whiteSpace=wrap;html=1;" vertex="1" parent="n1yPlHlh6JEWoWV6ZDrB-6">
          <mxGeometry y="110" width="220" height="72" as="geometry" />
        </mxCell>
        <mxCell id="n1yPlHlh6JEWoWV6ZDrB-10" value="DB_Operations" style="swimlane;fontStyle=1;align=center;verticalAlign=top;childLayout=stackLayout;horizontal=1;startSize=26;horizontalStack=0;resizeParent=1;resizeParentMax=0;resizeLast=0;collapsible=1;marginBottom=0;whiteSpace=wrap;html=1;" vertex="1" parent="1">
          <mxGeometry x="330" y="410" width="340" height="140" as="geometry" />
        </mxCell>
        <mxCell id="n1yPlHlh6JEWoWV6ZDrB-11" value="- db : FirebaseFirestore" style="text;strokeColor=none;fillColor=none;align=left;verticalAlign=top;spacingLeft=4;spacingRight=4;overflow=hidden;rotatable=0;points=[[0,0.5],[1,0.5]];portConstraint=eastwest;whiteSpace=wrap;html=1;" vertex="1" parent="n1yPlHlh6JEWoWV6ZDrB-10">
          <mxGeometry y="26" width="340" height="26" as="geometry" />
        </mxCell>
        <mxCell id="n1yPlHlh6JEWoWV6ZDrB-12" value="" style="line;strokeWidth=1;fillColor=none;align=left;verticalAlign=middle;spacingTop=-1;spacingLeft=3;spacingRight=3;rotatable=0;labelPosition=right;points=[];portConstraint=eastwest;strokeColor=inherit;" vertex="1" parent="n1yPlHlh6JEWoWV6ZDrB-10">
          <mxGeometry y="52" width="340" height="8" as="geometry" />
        </mxCell>
        <mxCell id="n1yPlHlh6JEWoWV6ZDrB-13" value="+ getTask(id): Task&lt;div&gt;+ addTask(title, description, status, deadline, priority)&lt;br&gt;&lt;div&gt;+ removeTask(id)&lt;/div&gt;&lt;div&gt;+ uipdateTask(id, title, description, status, deadline, priority)&lt;/div&gt;&lt;/div&gt;" style="text;strokeColor=none;fillColor=none;align=left;verticalAlign=top;spacingLeft=4;spacingRight=4;overflow=hidden;rotatable=0;points=[[0,0.5],[1,0.5]];portConstraint=eastwest;whiteSpace=wrap;html=1;" vertex="1" parent="n1yPlHlh6JEWoWV6ZDrB-10">
          <mxGeometry y="60" width="340" height="80" as="geometry" />
        </mxCell>
        <mxCell id="n1yPlHlh6JEWoWV6ZDrB-15" value="TaskList" style="swimlane;fontStyle=1;align=center;verticalAlign=top;childLayout=stackLayout;horizontal=1;startSize=26;horizontalStack=0;resizeParent=1;resizeParentMax=0;resizeLast=0;collapsible=1;marginBottom=0;whiteSpace=wrap;html=1;" vertex="1" parent="1">
          <mxGeometry x="20" y="20" width="350" height="190" as="geometry" />
        </mxCell>
        <mxCell id="n1yPlHlh6JEWoWV6ZDrB-16" value="- list : List&amp;lt;Task&amp;gt;&lt;div&gt;- db : DB_Operations&lt;/div&gt;&lt;div&gt;- adapter : TaskAdapter&lt;/div&gt;&lt;div&gt;- recyclerView : RecyclerView&lt;/div&gt;" style="text;strokeColor=none;fillColor=none;align=left;verticalAlign=top;spacingLeft=4;spacingRight=4;overflow=hidden;rotatable=0;points=[[0,0.5],[1,0.5]];portConstraint=eastwest;whiteSpace=wrap;html=1;" vertex="1" parent="n1yPlHlh6JEWoWV6ZDrB-15">
          <mxGeometry y="26" width="350" height="74" as="geometry" />
        </mxCell>
        <mxCell id="n1yPlHlh6JEWoWV6ZDrB-17" value="" style="line;strokeWidth=1;fillColor=none;align=left;verticalAlign=middle;spacingTop=-1;spacingLeft=3;spacingRight=3;rotatable=0;labelPosition=right;points=[];portConstraint=eastwest;strokeColor=inherit;" vertex="1" parent="n1yPlHlh6JEWoWV6ZDrB-15">
          <mxGeometry y="100" width="350" height="8" as="geometry" />
        </mxCell>
        <mxCell id="n1yPlHlh6JEWoWV6ZDrB-18" value="+ showData()&lt;div&gt;+ getTasks() : return List&amp;lt;Task&amp;gt;&lt;/div&gt;&lt;div&gt;+ removeTask(id)&amp;nbsp;&lt;/div&gt;&lt;div&gt;+ updateTasks(List&amp;lt;Task&amp;gt;) : return List&amp;lt;Task&amp;gt;&lt;/div&gt;" style="text;strokeColor=none;fillColor=none;align=left;verticalAlign=top;spacingLeft=4;spacingRight=4;overflow=hidden;rotatable=0;points=[[0,0.5],[1,0.5]];portConstraint=eastwest;whiteSpace=wrap;html=1;" vertex="1" parent="n1yPlHlh6JEWoWV6ZDrB-15">
          <mxGeometry y="108" width="350" height="82" as="geometry" />
        </mxCell>
        <mxCell id="n1yPlHlh6JEWoWV6ZDrB-19" value="Calender" style="swimlane;fontStyle=1;align=center;verticalAlign=top;childLayout=stackLayout;horizontal=1;startSize=26;horizontalStack=0;resizeParent=1;resizeParentMax=0;resizeLast=0;collapsible=1;marginBottom=0;whiteSpace=wrap;html=1;" vertex="1" parent="1">
          <mxGeometry x="470" y="20" width="340" height="190" as="geometry" />
        </mxCell>
        <mxCell id="n1yPlHlh6JEWoWV6ZDrB-20" value="- list : List&amp;lt;Task&amp;gt;&lt;div&gt;- list : List&amp;lt;Event&amp;gt;&amp;nbsp;&lt;/div&gt;&lt;div&gt;- db : DB_Operations&amp;nbsp;&lt;/div&gt;&lt;div&gt;- view : CalendarView&lt;/div&gt;&lt;div&gt;- google_connection : GoogleCalendarAPI&lt;/div&gt;" style="text;strokeColor=none;fillColor=none;align=left;verticalAlign=top;spacingLeft=4;spacingRight=4;overflow=hidden;rotatable=0;points=[[0,0.5],[1,0.5]];portConstraint=eastwest;whiteSpace=wrap;html=1;" vertex="1" parent="n1yPlHlh6JEWoWV6ZDrB-19">
          <mxGeometry y="26" width="340" height="94" as="geometry" />
        </mxCell>
        <mxCell id="n1yPlHlh6JEWoWV6ZDrB-21" value="" style="line;strokeWidth=1;fillColor=none;align=left;verticalAlign=middle;spacingTop=-1;spacingLeft=3;spacingRight=3;rotatable=0;labelPosition=right;points=[];portConstraint=eastwest;strokeColor=inherit;" vertex="1" parent="n1yPlHlh6JEWoWV6ZDrB-19">
          <mxGeometry y="120" width="340" height="8" as="geometry" />
        </mxCell>
        <mxCell id="n1yPlHlh6JEWoWV6ZDrB-22" value="+ getTasks() : return List&amp;lt;Task&amp;gt;&lt;div&gt;+ getEvents() : return List&amp;lt;Event&amp;gt;&lt;/div&gt;&lt;div&gt;+ showCalendar()&lt;/div&gt;" style="text;strokeColor=none;fillColor=none;align=left;verticalAlign=top;spacingLeft=4;spacingRight=4;overflow=hidden;rotatable=0;points=[[0,0.5],[1,0.5]];portConstraint=eastwest;whiteSpace=wrap;html=1;" vertex="1" parent="n1yPlHlh6JEWoWV6ZDrB-19">
          <mxGeometry y="128" width="340" height="62" as="geometry" />
        </mxCell>
        <mxCell id="n1yPlHlh6JEWoWV6ZDrB-23" value="&lt;p style=&quot;margin:0px;margin-top:4px;text-align:center;&quot;&gt;&lt;b&gt;TaskAdapter&lt;/b&gt;&lt;/p&gt;&lt;hr size=&quot;1&quot; style=&quot;border-style:solid;&quot;&gt;&lt;p style=&quot;margin:0px;margin-left:4px;&quot;&gt;- list : List&amp;lt;Task&amp;gt;&lt;/p&gt;&lt;p style=&quot;margin:0px;margin-left:4px;&quot;&gt;- db : DB_Operations&lt;/p&gt;&lt;hr size=&quot;1&quot; style=&quot;border-style:solid;&quot;&gt;&lt;p style=&quot;margin:0px;margin-left:4px;&quot;&gt;+ onCreateViewHolder&lt;/p&gt;&lt;p style=&quot;margin:0px;margin-left:4px;&quot;&gt;+ onBindViewHolder&lt;/p&gt;&lt;p style=&quot;margin:0px;margin-left:4px;&quot;&gt;+ getItemCount() : return int&lt;/p&gt;" style="verticalAlign=top;align=left;overflow=fill;html=1;whiteSpace=wrap;" vertex="1" parent="1">
          <mxGeometry x="97" y="300" width="160" height="130" as="geometry" />
        </mxCell>
        <mxCell id="n1yPlHlh6JEWoWV6ZDrB-24" value="TaskViewHolder" style="swimlane;fontStyle=1;align=center;verticalAlign=top;childLayout=stackLayout;horizontal=1;startSize=26;horizontalStack=0;resizeParent=1;resizeParentMax=0;resizeLast=0;collapsible=1;marginBottom=0;whiteSpace=wrap;html=1;" vertex="1" parent="1">
          <mxGeometry x="96" y="490" width="160" height="130" as="geometry" />
        </mxCell>
        <mxCell id="n1yPlHlh6JEWoWV6ZDrB-25" value="- view : View&lt;div&gt;- adapter : TaskAdapter&lt;/div&gt;" style="text;strokeColor=none;fillColor=none;align=left;verticalAlign=top;spacingLeft=4;spacingRight=4;overflow=hidden;rotatable=0;points=[[0,0.5],[1,0.5]];portConstraint=eastwest;whiteSpace=wrap;html=1;" vertex="1" parent="n1yPlHlh6JEWoWV6ZDrB-24">
          <mxGeometry y="26" width="160" height="44" as="geometry" />
        </mxCell>
        <mxCell id="n1yPlHlh6JEWoWV6ZDrB-26" value="" style="line;strokeWidth=1;fillColor=none;align=left;verticalAlign=middle;spacingTop=-1;spacingLeft=3;spacingRight=3;rotatable=0;labelPosition=right;points=[];portConstraint=eastwest;strokeColor=inherit;" vertex="1" parent="n1yPlHlh6JEWoWV6ZDrB-24">
          <mxGeometry y="70" width="160" height="8" as="geometry" />
        </mxCell>
        <mxCell id="n1yPlHlh6JEWoWV6ZDrB-27" value="+ delete.onClickListener&lt;div&gt;+ edit.onClickListener&lt;/div&gt;" style="text;strokeColor=none;fillColor=none;align=left;verticalAlign=top;spacingLeft=4;spacingRight=4;overflow=hidden;rotatable=0;points=[[0,0.5],[1,0.5]];portConstraint=eastwest;whiteSpace=wrap;html=1;" vertex="1" parent="n1yPlHlh6JEWoWV6ZDrB-24">
          <mxGeometry y="78" width="160" height="52" as="geometry" />
        </mxCell>
        <mxCell id="n1yPlHlh6JEWoWV6ZDrB-28" value="" style="endArrow=open;startArrow=circlePlus;endFill=0;startFill=0;endSize=8;html=1;rounded=0;entryX=0.5;entryY=0;entryDx=0;entryDy=0;exitX=0.5;exitY=1;exitDx=0;exitDy=0;" edge="1" parent="1" source="n1yPlHlh6JEWoWV6ZDrB-23" target="n1yPlHlh6JEWoWV6ZDrB-24">
          <mxGeometry width="160" relative="1" as="geometry">
            <mxPoint x="280" y="360" as="sourcePoint" />
            <mxPoint x="440" y="360" as="targetPoint" />
          </mxGeometry>
        </mxCell>
        <mxCell id="n1yPlHlh6JEWoWV6ZDrB-31" value="" style="endArrow=block;startArrow=block;endFill=1;startFill=1;html=1;rounded=0;exitX=0.455;exitY=1.035;exitDx=0;exitDy=0;exitPerimeter=0;entryX=0.508;entryY=-0.029;entryDx=0;entryDy=0;entryPerimeter=0;" edge="1" parent="1" source="n1yPlHlh6JEWoWV6ZDrB-18" target="n1yPlHlh6JEWoWV6ZDrB-23">
          <mxGeometry width="160" relative="1" as="geometry">
            <mxPoint x="330" y="290" as="sourcePoint" />
            <mxPoint x="490" y="290" as="targetPoint" />
          </mxGeometry>
        </mxCell>
        <mxCell id="n1yPlHlh6JEWoWV6ZDrB-32" value="Use" style="endArrow=open;endSize=12;dashed=1;html=1;rounded=0;entryX=0.494;entryY=1.04;entryDx=0;entryDy=0;entryPerimeter=0;" edge="1" parent="1" target="n1yPlHlh6JEWoWV6ZDrB-13">
          <mxGeometry width="160" relative="1" as="geometry">
            <mxPoint x="498" y="870" as="sourcePoint" />
            <mxPoint x="500" y="540" as="targetPoint" />
          </mxGeometry>
        </mxCell>
        <mxCell id="n1yPlHlh6JEWoWV6ZDrB-34" value="" style="endArrow=block;dashed=1;endFill=0;endSize=12;html=1;rounded=0;exitX=0.462;exitY=1.022;exitDx=0;exitDy=0;exitPerimeter=0;entryX=0.5;entryY=0.034;entryDx=0;entryDy=0;entryPerimeter=0;" edge="1" parent="1" source="n1yPlHlh6JEWoWV6ZDrB-27" target="n1yPlHlh6JEWoWV6ZDrB-1">
          <mxGeometry width="160" relative="1" as="geometry">
            <mxPoint x="170" y="640" as="sourcePoint" />
            <mxPoint x="330" y="640" as="targetPoint" />
          </mxGeometry>
        </mxCell>
        <mxCell id="n1yPlHlh6JEWoWV6ZDrB-35" value="" style="endArrow=none;dashed=1;endFill=0;endSize=12;html=1;rounded=0;" edge="1" parent="1">
          <mxGeometry width="160" relative="1" as="geometry">
            <mxPoint x="280" y="870" as="sourcePoint" />
            <mxPoint x="500" y="870" as="targetPoint" />
          </mxGeometry>
        </mxCell>
        <mxCell id="n1yPlHlh6JEWoWV6ZDrB-36" value="" style="endArrow=none;dashed=1;endFill=0;endSize=12;html=1;rounded=0;entryX=0.008;entryY=0.533;entryDx=0;entryDy=0;entryPerimeter=0;" edge="1" parent="1" target="n1yPlHlh6JEWoWV6ZDrB-8">
          <mxGeometry width="160" relative="1" as="geometry">
            <mxPoint x="500" y="870" as="sourcePoint" />
            <mxPoint x="630.8800000000001" y="858.8299999999999" as="targetPoint" />
          </mxGeometry>
        </mxCell>
      </root>
    </mxGraphModel>
  </diagram>
</mxfile>
